<?xml version="1.0" encoding="utf-8"?>
<!-- Generator: Adobe Illustrator 16.0.0, SVG Export Plug-In . SVG Version: 6.00 Build 0)  -->
<!DOCTYPE svg PUBLIC "-//W3C//DTD SVG 1.1//EN" "http://www.w3.org/Graphics/SVG/1.1/DTD/svg11.dtd">
<svg version="1.1" id="Layer_1" xmlns="http://www.w3.org/2000/svg" xmlns:xlink="http://www.w3.org/1999/xlink" x="0px" y="0px"
	 width="178.23px" height="23px" viewBox="0 0 178.23 23" enable-background="new 0 0 178.23 23" xml:space="preserve">
<g>
	<path id="Record" fill="#2B2C40" d="M11.04,22.2l-4.95-8.25H4.23v8.25H0V1.02h8.07c2.46,0,4.335,0.6,5.625,1.8
		c1.29,1.2,1.935,2.78,1.935,4.74c0,1.6-0.445,2.94-1.335,4.02s-2.175,1.8-3.855,2.16l5.28,8.46H11.04z M4.23,11.04h3.48
		c2.42,0,3.63-1.07,3.63-3.21c0-1.02-0.295-1.815-0.885-2.385C9.865,4.875,8.95,4.59,7.71,4.59H4.23V11.04z M34.11,13.26
		c0,0.42-0.05,0.9-0.15,1.44H21.78c0.06,1.479,0.46,2.569,1.2,3.27c0.74,0.7,1.66,1.05,2.76,1.05c0.98,0,1.795-0.239,2.445-0.72
		c0.65-0.479,1.065-1.13,1.245-1.95h4.47c-0.22,1.16-0.69,2.2-1.41,3.12c-0.72,0.921-1.645,1.64-2.775,2.16
		c-1.13,0.521-2.385,0.78-3.765,0.78c-1.62,0-3.06-0.346-4.32-1.035c-1.26-0.689-2.24-1.675-2.94-2.955
		c-0.7-1.279-1.05-2.79-1.05-4.529c0-1.74,0.35-3.256,1.05-4.546c0.7-1.29,1.68-2.275,2.94-2.955c1.26-0.68,2.7-1.02,4.32-1.02
		c1.64,0,3.075,0.34,4.305,1.02c1.23,0.68,2.18,1.615,2.85,2.805S34.11,11.74,34.11,13.26z M29.85,12.84
		c0.06-1.36-0.295-2.39-1.065-3.09S27.07,8.7,25.95,8.7c-1.14,0-2.1,0.35-2.88,1.05c-0.78,0.7-1.21,1.73-1.29,3.09H29.85z
		 M44.58,5.37c2.14,0,3.925,0.58,5.355,1.74c1.43,1.16,2.325,2.74,2.685,4.74h-4.47c-0.18-0.88-0.59-1.575-1.23-2.085
		C46.28,9.255,45.47,9,44.49,9c-1.12,0-2.055,0.415-2.805,1.245s-1.125,2.045-1.125,3.646c0,1.6,0.375,2.814,1.125,3.645
		s1.685,1.245,2.805,1.245c0.98,0,1.79-0.255,2.43-0.765c0.64-0.511,1.05-1.205,1.23-2.086h4.47c-0.36,2-1.255,3.58-2.685,4.74
		s-3.215,1.74-5.355,1.74c-1.62,0-3.06-0.346-4.32-1.035C39,20.686,38.02,19.7,37.32,18.42c-0.7-1.279-1.05-2.79-1.05-4.529
		c0-1.74,0.35-3.256,1.05-4.546c0.7-1.29,1.68-2.275,2.94-2.955C41.52,5.71,42.96,5.37,44.58,5.37z M63.3,5.37
		c1.62,0,3.075,0.34,4.365,1.02c1.29,0.68,2.305,1.665,3.045,2.955c0.74,1.29,1.11,2.806,1.11,4.546c0,1.739-0.37,3.25-1.11,4.529
		c-0.74,1.28-1.755,2.266-3.045,2.955S64.92,22.41,63.3,22.41c-1.62,0-3.075-0.346-4.365-1.035S56.63,19.7,55.89,18.42
		c-0.74-1.279-1.11-2.79-1.11-4.529c0-1.74,0.37-3.256,1.11-4.546c0.74-1.29,1.755-2.275,3.045-2.955
		C60.225,5.71,61.68,5.37,63.3,5.37z M63.3,9.03c-1.18,0-2.18,0.415-3,1.245c-0.82,0.83-1.23,2.036-1.23,3.616
		c0,1.579,0.41,2.784,1.23,3.614c0.82,0.83,1.82,1.245,3,1.245c1.18,0,2.18-0.415,3-1.245c0.82-0.83,1.23-2.035,1.23-3.614
		c0-1.58-0.41-2.786-1.23-3.616C65.48,9.445,64.48,9.03,63.3,9.03z M79.05,8.76c0.62-1.06,1.44-1.895,2.46-2.505
		c1.02-0.61,2.16-0.915,3.42-0.915v4.53H83.7c-3.1,0-4.65,1.44-4.65,4.319V22.2h-4.23V5.58h4.23V8.76z M93.779,5.37
		c1.4,0,2.596,0.33,3.586,0.99c0.99,0.66,1.705,1.55,2.145,2.67V0h4.2v22.2h-4.2v-3.48c-0.439,1.12-1.154,2.015-2.145,2.686
		c-0.99,0.67-2.186,1.005-3.586,1.005c-1.399,0-2.659-0.34-3.779-1.02c-1.12-0.681-1.995-1.666-2.625-2.955
		c-0.63-1.291-0.945-2.806-0.945-4.545c0-1.74,0.315-3.256,0.945-4.546C88.005,8.055,88.88,7.07,90,6.39
		C91.12,5.71,92.38,5.37,93.779,5.37z M95.1,9.06c-1.32,0-2.379,0.43-3.18,1.29c-0.8,0.86-1.199,2.041-1.199,3.541
		s0.399,2.674,1.199,3.524c0.801,0.851,1.859,1.274,3.18,1.274c1.28,0,2.336-0.435,3.166-1.305c0.83-0.869,1.244-2.035,1.244-3.494
		c0-1.48-0.414-2.656-1.244-3.525C97.436,9.495,96.38,9.06,95.1,9.06z"/>
	<path id="Cast" fill="#2B2C40" d="M139.35,5.56c1.4,0,2.601,0.33,3.601,0.99c1,0.66,1.71,1.55,2.13,2.67V5.77h4.199v16.621h-4.199
		v-3.48c-0.42,1.12-1.13,2.015-2.13,2.685c-1,0.671-2.2,1.005-3.601,1.005c-1.399,0-2.66-0.34-3.779-1.02
		c-1.12-0.68-1.995-1.665-2.625-2.955C132.314,17.335,132,15.82,132,14.08s0.314-3.255,0.945-4.545
		c0.63-1.29,1.505-2.275,2.625-2.955C136.689,5.9,137.95,5.56,139.35,5.56z M140.67,9.25c-1.32,0-2.38,0.43-3.18,1.29
		c-0.801,0.86-1.2,2.04-1.2,3.54s0.399,2.675,1.2,3.525c0.8,0.85,1.859,1.274,3.18,1.274c1.28,0,2.335-0.435,3.165-1.305
		s1.245-2.035,1.245-3.495c0-1.48-0.415-2.655-1.245-3.525C143.005,9.685,141.95,9.25,140.67,9.25z M158.85,5.56
		c2.021,0,3.641,0.51,4.86,1.53s1.979,2.38,2.28,4.08h-3.961c-0.159-0.8-0.52-1.44-1.079-1.92s-1.29-0.72-2.19-0.72
		c-0.72,0-1.279,0.17-1.68,0.51s-0.6,0.8-0.6,1.38c0,0.46,0.16,0.83,0.479,1.11c0.319,0.28,0.72,0.5,1.2,0.659
		c0.48,0.16,1.17,0.351,2.07,0.57c1.26,0.28,2.285,0.575,3.074,0.885c0.791,0.311,1.471,0.801,2.041,1.471
		c0.569,0.67,0.854,1.574,0.854,2.715c0,1.42-0.556,2.57-1.665,3.45c-1.11,0.88-2.605,1.319-4.485,1.319
		c-2.159,0-3.89-0.484-5.19-1.455c-1.299-0.97-2.09-2.354-2.369-4.154h4.05c0.101,0.82,0.46,1.465,1.08,1.935s1.43,0.705,2.43,0.705
		c0.72,0,1.271-0.175,1.65-0.524c0.38-0.351,0.569-0.806,0.569-1.365c0-0.48-0.164-0.87-0.494-1.17c-0.33-0.301-0.74-0.53-1.23-0.69
		s-1.186-0.35-2.085-0.569c-1.239-0.28-2.245-0.565-3.015-0.855c-0.771-0.29-1.43-0.755-1.98-1.395
		c-0.55-0.641-0.824-1.521-0.824-2.641c0-1.44,0.549-2.61,1.649-3.51C155.391,6.01,156.91,5.56,158.85,5.56z M178.23,18.76v3.631
		h-2.221c-1.859,0-3.285-0.451-4.275-1.351c-0.989-0.899-1.484-2.399-1.484-4.5v-7.2h-2.311V5.77h2.311V1.66h4.23v4.11h3.72v3.57
		h-3.72v7.26c0,0.801,0.16,1.36,0.479,1.681c0.319,0.319,0.86,0.479,1.62,0.479H178.23z"/>
	<g>
		<circle id="椭圆形_1_" fill="#FF446B" cx="118" cy="12" r="3"/>
		<path fill="#FF446B" d="M118,18c-3.309,0-6-2.691-6-6s2.691-6,6-6c2.967,0,5.432,2.167,5.91,5h5.039
			C128.441,5.402,123.728,1,118,1c-6.065,0-11,4.935-11,11s4.935,11,11,11c5.382,0,9.864-3.888,10.809-9h-5.158
			C122.823,16.326,120.606,18,118,18z"/>
	</g>
</g>
</svg>
